<?xml version="1.0" encoding="iso-8859-1"?>
<!-- Generator: Adobe Illustrator 19.0.0, SVG Export Plug-In . SVG Version: 6.00 Build 0)  -->
<svg version="1.1" id="Layer_1" xmlns="http://www.w3.org/2000/svg" xmlns:xlink="http://www.w3.org/1999/xlink" x="0px" y="0px"
	 viewBox="0 0 512.001 512.001" style="enable-background:new 0 0 512.001 512.001;" xml:space="preserve">
<path style="fill:#FFA834;" d="M492.169,259.48c-0.568-0.883-1.171-1.758-1.787-2.631c7.393-10.46,11.387-21.59,11.387-33.136
	c0-10.58-3.348-20.817-9.599-30.497c-2.63-4.087-5.776-8.062-9.417-11.936c-37.335-39.844-125.701-67.853-228.775-67.853
	c-136.848,0-247.781,49.372-247.781,110.286c0,11.542,4.005,22.666,11.391,33.122c-7.395,10.461-11.391,21.593-11.391,33.142
	c0,11.988,4.297,23.529,12.241,34.334c-7.933,10.799-12.241,22.328-12.241,34.308c0,34.827,36.253,65.88,92.888,86.08
	c18.298,6.544,38.731,11.936,60.752,15.962c29.02,5.321,60.812,8.244,94.142,8.244c136.858,0,247.792-49.372,247.792-110.286
	c0-10.58-3.348-20.817-9.599-30.497c-0.827-1.286-1.725-2.557-2.653-3.82c7.941-10.803,12.253-22.338,12.253-34.323
	C501.768,279.396,498.42,269.16,492.169,259.48z"/>
<path style="fill:#FEDAAA;" d="M501.768,151.763c0,60.914-110.933,110.286-247.792,110.286c-33.33,0-65.122-2.923-94.142-8.244
	c-22.021-4.026-42.453-9.417-60.752-15.962c-56.635-20.2-92.888-51.254-92.888-86.08c0-60.914,110.933-110.286,247.781-110.286
	c103.074,0,191.44,28.009,228.775,67.853c3.641,3.874,6.787,7.849,9.417,11.936C498.42,130.946,501.768,141.183,501.768,151.763z"/>
<path style="fill:#FCC062;" d="M501.768,151.763c0,60.914-110.933,110.286-247.792,110.286c-33.33,0-65.122-2.923-94.142-8.244
	c-22.021-4.026-42.453-9.417-60.752-15.962c-23.973-16.437-37.891-36.05-37.891-57.12c0-58.061,105.744-105.127,236.189-105.127
	c62.026,0,118.469,10.641,160.609,28.049c12.796,5.28,24.266,11.187,34.179,17.621C498.42,130.946,501.768,141.183,501.768,151.763z
	"/>
<path style="fill:#FFA834;" d="M501.768,151.763c0,60.914-110.933,110.286-247.792,110.286c-33.33,0-65.122-2.923-94.142-8.244
	c-21.252-15.78-33.461-34.24-33.461-53.975c0-58.061,105.744-105.117,236.179-105.117c33.967,0,66.254,3.186,95.437,8.932
	c8.537,1.679,16.801,3.581,24.762,5.685c3.641,3.874,6.787,7.849,9.417,11.936C498.42,130.946,501.768,141.183,501.768,151.763z"/>
<path style="fill:#A81124;" d="M253.977,151.733c-14.371,0-27.689-8.403-33.931-21.406c-2.434-5.097-3.667-10.546-3.667-16.202
	c0-20.737,16.866-37.608,37.598-37.608c6.054,0,12.071,1.477,17.401,4.272c12.463,6.523,20.207,19.298,20.207,33.338
	C291.585,134.862,274.714,151.733,253.977,151.733z"/>
<path style="fill:#FF1D25;" d="M273.337,98.375c0,19.057-15.507,34.564-34.564,34.564c-5.766,0-11.208-1.416-15.992-3.925
	c-2.155-4.511-3.368-9.559-3.368-14.89c0-19.067,15.507-34.574,34.564-34.574c5.766,0,11.208,1.416,15.992,3.925
	C272.124,87.987,273.337,93.044,273.337,98.375z"/>
<path style="fill:#CCD6DB;" d="M351.417,431.761c-7.033,0-12.755-5.722-12.755-12.755V261.573l-5.839,1.718
	c-11.138,3.283-23.823,5.019-36.685,5.019c-7.097,0-14.189-0.532-21.082-1.582l-1.513-0.232l-1.35,0.73
	c-0.82,0.443-1.742,0.898-2.815,1.392l-2.633,1.223v63.842c0,7.039-5.726,12.765-12.765,12.765c-7.033,0-12.755-5.726-12.755-12.765
	v-58.607h-4.449l-0.151,0.01h-0.104c-3.864,0-7.742-0.236-11.527-0.7c-21.096-2.595-36.409-11.888-36.409-22.1
	c0-9.326,13.174-18.147,32.037-21.449l2.768-0.479l0.806-2.693c3.324-11.088,17.442-20.968,37.766-26.428l6.093-1.639l-3.479-5.27
	c-4.012-6.076-6.046-12.381-6.046-18.736c0-4.786,1.148-9.572,3.412-14.225l0.642-1.321l1.434-0.316
	c14.745-3.242,27.08-13.502,32.999-27.445l0.462-1.087l1.075-0.489c22.432-10.195,51.07-15.809,80.639-15.809
	c49.135,0,94.296,15.567,112.375,38.735c3.7,4.727,6.201,9.704,7.427,14.791l0.083,0.344l0.78,185.219
	c0,7.046-5.722,12.768-12.755,12.768c-7.033,0-12.754-5.722-12.754-12.755V212.423l-6.961,4.345
	c-27.221,16.993-70.856,21.664-89.489,23.657c-10.778,1.146-11.502,1.333-12.907,3.343l-0.819,1.17v174.067
	C364.172,426.039,358.451,431.761,351.417,431.761z"/>
<path style="fill:#E5E9EA;" d="M496.822,354.006c0,4.896-3.641,8.962-8.355,9.62c-0.445,0.071-0.9,0.101-1.366,0.101
	c-5.361,0-9.721-4.36-9.721-9.721V206.952l-11.602,7.242c-26.623,16.619-69.775,21.242-88.204,23.214
	c-10.843,1.153-12.796,1.366-15.072,4.623l-1.366,1.952v175.023c0,5.361-4.36,9.721-9.721,9.721c-0.496,0-0.971-0.04-1.446-0.111
	c-4.673-0.698-8.274-4.744-8.274-9.609V257.517l-9.731,2.863c-10.843,3.196-23.235,4.896-35.828,4.896
	c-6.979,0-13.918-0.526-20.625-1.548l-2.519-0.384l-2.246,1.214c-0.769,0.415-1.629,0.84-2.64,1.305l-4.4,2.043v65.779
	c0,5.361-4.37,9.731-9.731,9.731c-0.668,0-1.325-0.071-1.952-0.202c-4.43-0.91-7.768-4.835-7.768-9.529v-61.642h-7.586l-0.152,0.01
	c-3.884,0-7.617-0.243-11.157-0.678c0.85-1.699,1.881-3.247,3.115-4.542c5.917-6.221,16.69-8.82,24.752-10.226l4.623-0.809
	l1.345-4.491c2.964-9.913,16.629-19.259,35.646-24.367l10.156-2.731l-5.796-8.78c-3.682-5.563-5.543-11.299-5.543-17.064
	c0-4.41,1.072-8.729,3.105-12.897c15.861-3.49,28.919-14.556,35.13-29.213c21.1-9.599,49.129-15.547,79.394-15.547
	c29.425,0,56.898,5.604,77.887,14.799c3.389,4.329,5.725,8.891,6.868,13.635L496.822,354.006z"/>
<path style="fill:#FFA834;" d="M462.208,289.977v50.505c-10.105,7.839-22.557,15.173-37.113,21.727
	c-14.788,6.666-31.185,12.351-48.786,17.004v-53.57c19.907-5.047,38.407-11.349,55.016-18.834
	C442.858,301.619,453.165,295.975,462.208,289.977z"/>
<path style="fill:#FCC062;" d="M326.523,355.877v33.249c-23.154,3.247-47.551,4.936-72.546,4.936
	c-64.757,0-125.529-11.309-171.108-31.853c-43.02-19.381-67.701-45.478-67.701-71.595c0-0.354,0-0.698,0.02-1.052
	c15.223,13.109,40.946,28.697,61.45,37.932c41.715,18.794,95.386,30.174,153.134,32.662c2.62,10.945,12.482,19.108,24.206,19.108
	c11.734,0,21.596-8.163,24.216-19.108C294.701,359.448,310.865,358.012,326.523,355.877z"/>
<g>
	<path style="fill:#FEDAAA;" d="M160.229,370.355c6.089,1.291,11.517,2.332,17.804,3.401l2.24-14.984
		c-5.855-1.009-11.627-2.114-17.299-3.322L160.229,370.355z"/>
	<path style="fill:#FEDAAA;" d="M149.223,352.279c-22.38-5.558-43.009-12.705-61.155-21.296c-3.926-1.859-7.675-3.777-11.282-5.738
		l-8.009,12.92c4.086,2.235,8.337,4.419,12.799,6.531c19.012,9,40.585,16.475,63.944,22.276L149.223,352.279z"/>
</g>
<path style="fill:#FCC062;" d="M462.208,310.652v29.83c-10.105,7.839-22.557,15.173-37.113,21.727
	c-14.788,6.666-31.185,12.351-48.786,17.004v-32.895c19.907-5.037,38.407-11.349,55.016-18.824
	C442.858,322.295,453.165,316.651,462.208,310.652z"/>
<g>
	<path style="fill:#FFA834;" d="M462.208,233.302v37.952c-10.105,7.839-22.557,15.163-37.113,21.727
		c-14.788,6.666-31.185,12.351-48.786,16.993v-53.57c7.435-1.881,14.677-3.935,21.697-6.17
		C416.74,247.635,441.593,242.881,462.208,233.302z"/>
	<path style="fill:#FFA834;" d="M326.523,277.373v42.514c-15.395,2.165-31.337,3.631-47.642,4.38v-44.79
		C294.752,281.278,311.522,280.519,326.523,277.373z"/>
</g>
<g>
	<path style="fill:#FCC062;" d="M229.084,310.652v13.615c-55.32-2.519-106.523-13.403-146.215-31.286
		c-43.02-19.391-67.701-45.488-67.701-71.595v-0.01c15.021,13.524,40.703,30.528,61.47,39.884
		c29.658,13.362,65.354,22.982,104.257,28.322c3.298,4.744,8.345,8.982,15.001,12.452
		C205.07,306.809,216.652,309.793,229.084,310.652z"/>
	<path style="fill:#FCC062;" d="M462.208,256.981v14.273c-10.105,7.839-22.557,15.163-37.113,21.727
		c-14.788,6.666-31.185,12.351-48.786,16.993v-29.89c7.435-1.881,14.677-3.935,21.697-6.17
		C416.74,271.314,441.593,266.56,462.208,256.981z"/>
	<path style="fill:#FCC062;" d="M326.523,301.053v18.834c-15.395,2.165-31.337,3.631-47.642,4.38v-21.11
		C294.752,304.957,311.522,304.199,326.523,301.053z"/>
	<path style="fill:#FCC062;" d="M326.523,444.365c0,4.946,1.446,9.559,3.955,13.433c-24.327,3.621-50.08,5.503-76.501,5.503
		c-64.757,0-125.529-11.319-171.108-31.853c-41.341-18.632-65.739-43.455-67.58-68.53c16.7,13.544,42.605,30.032,61.349,38.478
		c47.491,21.404,110.478,33.198,177.339,33.198c24.924,0,49.301-1.649,72.546-4.805V444.365z"/>
	<path style="fill:#FCC062;" d="M488.467,378.859c-8.82,19.431-30.851,37.932-63.372,52.589
		c-14.89,6.706-31.398,12.432-49.14,17.105c0.233-1.355,0.354-2.761,0.354-4.188V420.23c19.907-5.047,38.407-11.349,55.016-18.834
		c8.74-3.945,33.087-15.395,48.725-23.518c2.235,0.668,4.602,1.022,7.05,1.022C487.557,378.899,488.012,378.879,488.467,378.859z"/>
</g>
<path d="M511.209,167.455l-0.165-0.77c-0.707-3.302-1.816-6.546-3.297-9.717c0.13-1.599,0.215-3.203,0.215-4.816
	c0-32.82-27.217-63.159-76.638-85.43C383.83,45.319,320.848,33.532,253.982,33.532c-66.865,0-129.849,11.787-177.344,33.191
	C27.217,88.992,0,119.332,0,152.151c0,11.959,3.63,23.586,10.616,34.616C3.63,197.798,0,209.425,0,221.384S3.63,244.97,10.616,256
	C3.63,267.031,0,278.657,0,290.616s3.63,23.586,10.616,34.616C3.63,336.263,0,347.889,0,359.848c0,32.82,27.217,63.159,76.638,85.43
	c47.497,21.404,110.479,33.191,177.344,33.191c66.866,0,129.849-11.787,177.344-33.191c45.043-20.297,71.631-47.3,75.989-76.771
	c2.944-4.094,4.685-9.111,4.685-14.536l-0.788-185.729L511.209,167.455z M82.871,80.555c45.58-20.54,106.348-31.851,171.111-31.851
	s125.531,11.312,171.111,31.852c33.058,14.898,55.267,33.756,63.789,53.54c-6.387-5.114-13.997-9.781-22.715-13.871
	c-23.998-11.259-54.885-17.46-86.968-17.46c-28.262,0-54.196,4.612-75.503,12.562c0.009-0.402,0.03-0.8,0.03-1.204
	c0-27.429-22.314-49.744-49.743-49.744s-49.744,22.315-49.744,49.744c0,25.454,19.222,46.491,43.91,49.39
	c-1.147,3.922-1.753,7.956-1.753,12.082c0,5.695,1.139,11.294,3.395,16.729c-17.598,6.297-30.105,15.932-35.509,27.402
	c-21.913,4.847-36.253,16.336-37.702,30.227c-34.958-5.276-66.951-14.148-93.707-26.205c-43.025-19.389-67.7-45.484-67.7-71.597
	S39.848,99.943,82.871,80.555z M288.553,114.122c0,19.062-15.509,34.571-34.571,34.571c-19.063,0-34.572-15.509-34.572-34.571
	c0-19.063,15.509-34.572,34.572-34.572C273.044,79.551,288.553,95.059,288.553,114.122z M20.725,199.833
	c12.96,14.071,31.781,26.874,55.913,37.748c29.658,13.364,65.353,22.98,104.262,28.317c3.292,4.746,8.344,8.986,15.002,12.455
	c9.17,4.778,20.749,7.762,33.186,8.616v37.296c-55.327-2.517-106.53-13.401-146.216-31.285
	c-43.024-19.388-67.699-45.484-67.699-71.596C15.173,214.151,17.073,206.921,20.725,199.833z M20.725,269.065
	c12.96,14.071,31.781,26.874,55.912,37.748c41.718,18.799,95.386,30.178,153.137,32.668c2.619,10.942,12.475,19.104,24.208,19.104
	s21.59-8.161,24.208-19.104c16.507-0.712,32.679-2.149,48.334-4.279v53.921c-23.159,3.249-47.55,4.94-72.542,4.94
	c-64.763,0-125.531-11.312-171.111-31.851c-43.022-19.387-67.697-45.483-67.697-71.596
	C15.173,283.384,17.073,276.153,20.725,269.065z M278.878,324.265v-44.789c15.871,1.797,32.648,1.04,47.647-2.099v42.514
	C311.125,322.051,295.182,323.523,278.878,324.265z M425.092,431.445c-45.58,20.54-106.348,31.852-171.111,31.852
	S128.45,451.985,82.87,431.445c-43.022-19.387-67.697-45.483-67.697-71.596c0-7.232,1.901-14.464,5.552-21.551
	c12.96,14.071,31.781,26.874,55.913,37.748c47.497,21.403,110.479,33.191,177.344,33.191c24.921,0,49.301-1.64,72.542-4.802v14.573
	c0,13.727,11.168,24.895,24.895,24.895c13.726,0,24.894-11.168,24.894-24.895v-24.135c19.898-5.039,38.404-11.343,55.011-18.826
	c11.737-5.288,22.204-11.038,31.368-17.161c2.275,11.398,12.355,20.014,24.411,20.014c0.456,0,0.909-0.014,1.36-0.038
	C479.648,398.294,457.62,416.788,425.092,431.445z M431.325,306.814c11.53-5.196,21.836-10.836,30.885-16.84v50.511
	c-10.111,7.837-22.56,15.168-37.118,21.727c-14.785,6.663-31.178,12.348-48.778,16.998v-53.57
	C396.213,320.601,414.718,314.297,431.325,306.814z M376.315,309.978v-53.57c7.434-1.882,14.676-3.938,21.694-6.17
	c18.73-2.602,43.585-7.36,64.202-16.936v37.95c-10.111,7.837-22.56,15.168-37.118,21.727
	C410.307,299.643,393.915,305.328,376.315,309.978z M487.106,363.726c-5.361,0-9.722-4.362-9.722-9.723V206.95l-11.604,7.244
	c-26.627,16.623-69.777,21.238-88.202,23.208c-10.844,1.159-12.798,1.369-15.069,4.623l-1.367,1.956v175.025
	c0,5.361-4.361,9.723-9.722,9.723s-9.723-4.362-9.723-9.723V257.515l-9.732,2.869c-10.845,3.197-23.235,4.888-35.826,4.888
	c-6.977,0-13.917-0.52-20.627-1.546l-2.521-0.385l-2.243,1.216c-0.768,0.417-1.631,0.845-2.639,1.311l-4.405,2.035v65.788
	c0,5.361-4.361,9.723-9.723,9.723c-5.361,0-9.723-4.362-9.723-9.723v-61.642h-7.586l-0.154,0.002
	c-25.698,0-44.899-10.433-44.899-19.761c0-6.447,10.347-15.107,29.521-18.455l4.618-0.806l1.345-4.49
	c2.972-9.919,16.629-19.257,35.644-24.37l10.159-2.732l-5.798-8.776c-3.676-5.562-5.539-11.304-5.539-17.064
	c0-4.416,1.077-8.735,3.104-12.897c15.864-3.49,28.918-14.562,35.132-29.219c21.103-9.59,49.131-15.541,79.393-15.541
	c58.879,0,109.916,22.431,116.846,51.203l0.784,184.863C496.827,359.364,492.467,363.726,487.106,363.726z"/>
<g>
	<path style="fill:#FFFFFF;" d="M488.467,198.449v165.177c-0.527,0.084-1.068,0.111-1.622,0.098
		c-5.278-0.121-9.464-4.513-9.464-9.794V206.951l-11.602,7.242c-26.623,16.619-69.775,21.242-88.204,23.214
		c-10.843,1.153-12.796,1.366-15.072,4.623l-1.366,1.952v174.708c0,5.072-3.758,9.49-8.804,9.989
		c-0.843,0.083-1.602,0.048-2.363-0.066V241.32c0-9.395,7.622-17.03,17.017-16.986c25.44,0.117,74.049-3.816,108.248-32.174
		C480.495,187.796,488.467,191.614,488.467,198.449z"/>
	<path style="fill:#FFFFFF;" d="M263.708,267.906v65.779c0,5.361-4.37,9.731-9.731,9.731c-0.668,0-1.325-0.071-1.952-0.202v-59.31
		C252.026,276.596,256.749,270.129,263.708,267.906L263.708,267.906z"/>
	<circle style="fill:#FFFFFF;" cx="420.478" cy="178.776" r="31.99"/>
	<circle style="fill:#FFFFFF;" cx="360.272" cy="192.927" r="16.048"/>
	<circle style="fill:#FFFFFF;" cx="309.686" cy="241.722" r="12.311"/>
	<circle style="fill:#FFFFFF;" cx="317.354" cy="203.416" r="7.66"/>
</g>
<g>
	<circle style="fill:#FC4F5C;" cx="251.615" cy="97.986" r="13.361"/>
	<circle style="fill:#FC4F5C;" cx="232.831" cy="117.72" r="3.594"/>
</g>
<g>
</g>
<g>
</g>
<g>
</g>
<g>
</g>
<g>
</g>
<g>
</g>
<g>
</g>
<g>
</g>
<g>
</g>
<g>
</g>
<g>
</g>
<g>
</g>
<g>
</g>
<g>
</g>
<g>
</g>
</svg>
