<svg height="512pt" viewBox="0 -46 512 512" width="512pt" xmlns="http://www.w3.org/2000/svg"><path d="m440.898438 264.898438-33.898438 26.101562-90 69h-107l-45-30 45-60h16c57.898438 0 106-47.101562 106-105 0-41.398438 33.601562-75 75-75l10.5 4.5c45 45 54.597656 114.898438 23.398438 170.398438zm0 0" fill="#ff7816"/><path d="m440.898438 264.898438-33.898438 26.101562v-201l10.5 4.5c45 45 54.597656 114.898438 23.398438 170.398438zm0 0" fill="#ff4b00"/><path d="m482 345c0 41.398438-33.601562 75-75 75s-75-33.601562-75-75 33.601562-75 75-75 75 33.601562 75 75zm0 0" fill="#444"/><path d="m482 345c0 41.398438-33.601562 75-75 75v-150c41.398438 0 75 33.601562 75 75zm0 0" fill="#444"/><path d="m452 345c0 24.898438-20.097656 45-45 45s-45-20.101562-45-45c0-24.902344 20.097656-45 45-45s45 20.097656 45 45zm0 0" fill="#deecf1"/><path d="m452 345c0 24.898438-20.097656 45-45 45v-90c24.902344 0 45 20.097656 45 45zm0 0" fill="#c6e2e7"/><path d="m272 60h75v30h-75zm0 0" fill="#5a5a5a"/><path d="m150 0v120l-60 30-15-5.101562-75-24.898438v-120h60l15 15 15-15zm0 0" fill="#fed2a4"/><path d="m150 0v120l-60 30-15-5.101562v-129.898438l15-15zm0 0" fill="#ffbd86"/><path d="m180 345c0 41.421875-33.578125 75-75 75s-75-33.578125-75-75 33.578125-75 75-75 75 33.578125 75 75zm0 0" fill="#5a5a5a"/><path d="m150 345c0 24.851562-20.148438 45-45 45s-45-20.148438-45-45 20.148438-45 45-45 45 20.148438 45 45zm0 0" fill="#deecf1"/><path d="m377 30c-24.902344 0-45 20.097656-45 45 0 24.898438 20.097656 45 45 45h75v-90zm0 0" fill="#ff9f00"/><path d="m60 0h30v30h-30zm0 0" fill="#ff9f00"/><path d="m75 0h15v30h-15zm0 0" fill="#ff7816"/><path d="m210 360h-210v-105c0-57.988281 47.011719-105 105-105s105 47.011719 105 105zm0 0" fill="#ff9f00"/><path d="m180 180h-135c-24.851562 0-45-20.148438-45-45v-15h180c16.570312 0 30 13.429688 30 30s-13.429688 30-30 30zm0 0" fill="#5a5a5a"/><path d="m407 30h45v90h-45zm0 0" fill="#ff7816"/><path d="m407 240c-57.898438 0-105 47.101562-105 105v15h210v-15c0-57.898438-47.101562-105-105-105zm0 0" fill="#ff9f00"/><path d="m512 345v15h-105v-120c57.898438 0 105 47.101562 105 105zm0 0" fill="#ff7816"/></svg>