<?xml version="1.0" encoding="UTF-8"?>
<svg width="512px" height="358px" viewBox="0 0 512 358" version="1.1" xmlns="http://www.w3.org/2000/svg" xmlns:xlink="http://www.w3.org/1999/xlink">
    <!-- Generator: Sketch 41 (35326) - http://www.bohemiancoding.com/sketch -->
    <title>Group 2</title>
    <desc>Created with Sketch.</desc>
    <defs></defs>
    <g id="Page-1" stroke="none" stroke-width="1" fill="none" fill-rule="evenodd">
        <g id="Group-2">
            <g id="001-food">
                <g id="Layer_1">
                    <rect id="Rectangle-path" fill="#5389A9" x="247.56" y="22.868" width="16.879" height="56.264"></rect>
                    <path d="M256,67.879 L444.484,323.879 L478.242,323.879 L478.242,290.121 C478.242,167.38 378.74,67.879 256,67.879 Z" id="Shape" fill="#66C6FE"></path>
                    <path d="M256,67.879 C133.26,67.879 33.758,167.38 33.758,290.121 L33.758,323.879 L444.483,323.879 L444.483,290.121 C444.484,167.38 360.097,67.879 256,67.879 Z" id="Shape" fill="#99D9FF"></path>
                    <path d="M444.484,323.879 L410.726,357.637 L444.484,357.637 C463.129,357.637 478.242,342.523 478.242,323.879 L444.484,323.879 Z" id="Shape" fill="#5CA8D3"></path>
                    <path d="M444.484,323.879 L33.758,323.879 C33.758,342.524 48.872,357.637 67.516,357.637 L410.725,357.637 C429.37,357.637 444.484,342.524 444.484,323.879 Z" id="Shape" fill="#66C6FE"></path>
                    <path d="M503.56,332.319 L8.44,332.319 C3.778,332.319 0,328.541 0,323.879 C0,319.217 3.778,315.439 8.44,315.439 L503.56,315.439 C508.222,315.439 512,319.217 512,323.879 C512,328.541 508.222,332.319 503.56,332.319 Z" id="Shape" fill="#5CA8D3"></path>
                    <g id="Group" transform="translate(111.000000, 146.000000)" fill="#66C6FE">
                        <circle id="Oval" cx="42.6" cy="9.088" r="8.44"></circle>
                        <circle id="Oval" cx="8.842" cy="42.846" r="8.44"></circle>
                    </g>
                    <path d="M256,0.363 L244.747,17.242 L256,34.121 L289.758,34.121 C289.758,15.477 274.645,0.363 256,0.363 Z" id="Shape" fill="#5CA8D3"></path>
                    <path d="M222.242,34.121 L256,34.121 L256,0.363 C237.355,0.363 222.242,15.477 222.242,34.121 Z" id="Shape" fill="#66C6FE"></path>
                </g>
            </g>
            <g id="002-sleepy" transform="translate(122.000000, 151.000000)">
                <path d="M233.7895,154.7835 L233.7895,82 C233.7895,37.0015 197.1695,0.3945 152.158,0.3945 L103.6875,0.3945 C58.676,0.3945 22.056,37.0015 22.056,82 L22.056,154.7835 L0,154.7835 L0,163.6055 L26.4665,163.6055 L229.378,163.6055 L256,163.6055 L256,154.7835 L233.7895,154.7835 Z" id="Shape" fill="#334F55"></path>
                <path d="M30.878,154.7835 L30.878,82 C30.878,41.867 63.5395,9.2165 103.6875,9.2165 L152.158,9.2165 C192.306,9.2165 224.9675,41.867 224.9675,82 L224.9675,154.7835 L30.878,154.7835 Z" id="Shape" fill="#C5D35E"></path>
                <g id="Group" transform="translate(52.500000, 93.000000)" fill="#334F55">
                    <path d="M48.5165,0.0495 L4.4055,4.4605 C1.9805,4.704 0.214,6.864 0.4555,9.2895 C0.684,11.564 2.6005,13.2615 4.8405,13.2615 C4.987,13.2615 5.1335,13.255 5.284,13.24 L49.395,8.829 C51.82,8.5855 53.5865,6.4255 53.345,4 C53.104,1.5765 50.9975,-0.179 48.5165,0.0495 Z" id="Shape"></path>
                    <path d="M146.44,4.4605 L102.329,0.0495 C99.878,-0.183 97.7455,1.5765 97.5,3.9995 C97.2585,6.4245 99.025,8.585 101.45,8.8285 L145.561,13.2395 C145.712,13.2545 145.8585,13.261 146.005,13.261 C148.245,13.261 150.162,11.5635 150.3905,9.289 C150.631,6.864 148.865,4.704 146.44,4.4605 Z" id="Shape"></path>
                    <path d="M77.585,13.261 L73.26,13.261 C64.722,13.261 57.778,20.188 57.778,28.7 L57.778,39.728 C57.778,42.164 59.751,44.139 62.189,44.139 L88.6555,44.139 C91.0935,44.139 93.0665,42.164 93.0665,39.728 L93.0665,28.7 C93.067,20.188 86.123,13.261 77.585,13.261 Z" id="Shape"></path>
                </g>
                <path d="M136.7445,128.317 L119.1,128.317 L119.1,121.7 C119.1,118.0515 122.0895,115.0835 125.76,115.0835 L130.085,115.0835 C133.755,115.0835 136.745,118.0515 136.745,121.7 L136.7445,128.317 L136.7445,128.317 Z" id="Shape" fill="#E4AD4B"></path>
            </g>
            <g id="broken-heart" transform="translate(294.000000, 158.000000)">
                <g id="heartbreak">
                    <g id="Group">
                        <path d="M58.2663014,3.20855615 C56.5867791,3.20855615 54.9189611,3.39657754 53.2977611,3.76864973 L45.3279128,17.5969251 L52.2978427,20.1498128 C52.7752493,20.3244786 53.140709,20.7185294 53.2822351,21.2096791 C53.4245175,21.7008289 53.3249915,22.230361 53.015545,22.636123 L45.6319052,32.3064706 L48.4310559,38.6530749 C48.624654,39.0909626 48.6129896,39.5938636 48.4007204,40.0223663 L39.6424265,57.6694251 C39.2956379,58.3666043 38.4994294,58.7120455 37.7622995,58.4888102 C37.0205118,58.2655749 36.5462104,57.5386364 36.6364209,56.7646925 L38.168963,43.6421791 L34.4375318,36.8756952 C34.2011374,36.4464305 34.1723943,35.9317781 34.359782,35.4790107 L37.7343526,27.3197326 L33.6094749,25.5384225 C32.8746938,25.2211765 32.4874578,24.4049198 32.7044246,23.6294118 L37.4249062,6.72104278 C33.8512834,4.41958556 29.7365175,3.20855615 25.4553441,3.20855615 C14.3698521,3.20855615 3.18483412,10.1458155 3.18483412,25.6449465 C3.18483412,39.7928342 37.7662408,70.1135294 41.8483621,71.5305882 C45.9895621,70.0148262 80.5367716,40.001992 80.5367716,25.6449465 C80.5368114,10.1458155 69.3517934,3.20855615 58.2663014,3.20855615 Z" id="Shape" fill="#DBCF56"></path>
                        <path d="M58.2663014,0 C56.0969517,0 53.9415754,0.275735294 51.8616398,0.819385027 C51.4495223,0.92671123 51.0980758,1.1953877 50.884254,1.56669786 L41.618218,17.6439305 C41.3810673,18.054385 41.3375147,18.5494652 41.4984682,18.9959759 C41.6594218,19.4424866 42.007763,19.7941845 42.4509725,19.957139 L49.1650806,22.4168182 L42.5294787,31.1071925 C42.1733744,31.5740775 42.0987299,32.1991845 42.336637,32.7373396 L45.2158863,39.2649064 L40.8624171,48.0359358 L41.3919355,43.5027674 C41.4308303,43.1690775 41.3647052,42.8306551 41.2021991,42.5361096 L37.5959716,35.9959893 L41.2799886,27.0878743 C41.615909,26.2755481 41.2403374,25.3425802 40.4379185,24.996377 L36.1481858,23.1437968 L40.8018256,6.47434492 C40.9845555,5.82180481 40.7403981,5.12466578 40.1922483,4.73217914 C35.8698313,1.63640374 30.7745346,0 25.4553441,0 C10.2294085,0 0,10.3056016 0,25.6449465 C0,38.0804679 20.7169877,58.0900668 27.0664322,63.9267112 C30.5646142,67.1423262 38.7957384,74.4445989 41.7053232,74.7462032 L41.7053232,74.7493316 C41.7457706,74.753262 41.7869744,74.7555882 41.830527,74.7555882 L41.8833953,74.7555882 C41.9253953,74.7555882 41.9665991,74.7540241 42.0062502,74.7500936 L42.0062502,74.7454011 C44.6646711,74.4634091 51.9619621,68.127754 56.1840569,64.2713904 C62.6439355,58.3712968 83.7216853,38.1486096 83.7216853,25.6449465 C83.7216455,10.3056016 73.492237,0 58.2663014,0 Z M41.8483621,71.5305882 C37.7662408,70.1135294 3.18483412,39.7928342 3.18483412,25.6449465 C3.18483412,10.1458155 14.3698521,3.20855615 25.4553441,3.20855615 C29.7365175,3.20855615 33.8512834,4.41958556 37.4249062,6.72104278 L32.7044246,23.6294118 C32.4874976,24.4049198 32.8746938,25.2211765 33.6094749,25.5384225 L37.7343526,27.3197326 L34.359782,35.4790107 C34.1723943,35.9317781 34.2011773,36.4464305 34.4375318,36.8756952 L38.168963,43.6421791 L36.6364209,56.7646925 C36.5462104,57.5386364 37.0205118,58.2655749 37.7622995,58.4888102 C38.4994294,58.7120455 39.2956379,58.3666043 39.6424265,57.6694251 L48.4007204,40.0223663 C48.6129896,39.5938636 48.624654,39.0909626 48.4310559,38.6530749 L45.6319052,32.3064706 L53.0155052,22.6361631 C53.3249517,22.2304011 53.4244777,21.700869 53.2821953,21.2097193 C53.1406692,20.7185695 52.7752493,20.3245588 52.2978028,20.1498529 L45.327873,17.5969652 L53.2977213,3.76868984 C54.9189611,3.39657754 56.5867791,3.20855615 58.2663014,3.20855615 C69.3517934,3.20855615 80.5368114,10.1458155 80.5368114,25.6449465 C80.5368114,40.001992 45.9896019,70.0148262 41.8483621,71.5305882 Z" id="Shape" fill="#314E55"></path>
                    </g>
                </g>
            </g>
        </g>
    </g>
</svg>