<?xml version="1.0" encoding="UTF-8"?>
<svg width="512px" height="358px" viewBox="0 0 512 358" version="1.1" xmlns="http://www.w3.org/2000/svg" xmlns:xlink="http://www.w3.org/1999/xlink">
    <!-- Generator: Sketch 41 (35326) - http://www.bohemiancoding.com/sketch -->
    <title>Group 2</title>
    <desc>Created with Sketch.</desc>
    <defs></defs>
    <g id="Page-1" stroke="none" stroke-width="1" fill="none" fill-rule="evenodd">
        <g id="Group-2">
            <g id="001-food">
                <rect id="Rectangle-path" fill="#5389A9" x="247.56" y="22.868" width="16.879" height="56.264"></rect>
                <path d="M256,67.879 L444.484,323.879 L478.242,323.879 L478.242,290.121 C478.242,167.38 378.74,67.879 256,67.879 Z" id="Shape" fill="#66C6FE"></path>
                <path d="M256,67.879 C133.26,67.879 33.758,167.38 33.758,290.121 L33.758,323.879 L444.483,323.879 L444.483,290.121 C444.484,167.38 360.097,67.879 256,67.879 Z" id="Shape" fill="#99D9FF"></path>
                <path d="M444.484,323.879 L410.726,357.637 L444.484,357.637 C463.129,357.637 478.242,342.523 478.242,323.879 L444.484,323.879 Z" id="Shape" fill="#5CA8D3"></path>
                <path d="M444.484,323.879 L33.758,323.879 C33.758,342.524 48.872,357.637 67.516,357.637 L410.725,357.637 C429.37,357.637 444.484,342.524 444.484,323.879 Z" id="Shape" fill="#66C6FE"></path>
                <path d="M503.56,332.319 L8.44,332.319 C3.778,332.319 0,328.541 0,323.879 C0,319.217 3.778,315.439 8.44,315.439 L503.56,315.439 C508.222,315.439 512,319.217 512,323.879 C512,328.541 508.222,332.319 503.56,332.319 Z" id="Shape" fill="#5CA8D3"></path>
                <g id="Group" transform="translate(111.000000, 146.000000)" fill="#66C6FE">
                    <circle id="Oval" cx="42.6" cy="9.088" r="8.44"></circle>
                    <circle id="Oval" cx="8.842" cy="42.846" r="8.44"></circle>
                </g>
                <path d="M256,0.363 L244.747,17.242 L256,34.121 L289.758,34.121 C289.758,15.477 274.645,0.363 256,0.363 Z" id="Shape" fill="#5CA8D3"></path>
                <path d="M222.242,34.121 L256,34.121 L256,0.363 C237.355,0.363 222.242,15.477 222.242,34.121 Z" id="Shape" fill="#66C6FE"></path>
            </g>
            <g id="002-sleepy" transform="translate(128.000000, 151.000000)">
                <g id="Layer_1">
                    <path d="M233.7895,154.7835 L233.7895,82 C233.7895,37.0015 197.1695,0.3945 152.158,0.3945 L103.6875,0.3945 C58.676,0.3945 22.056,37.0015 22.056,82 L22.056,154.7835 L0,154.7835 L0,163.6055 L26.4665,163.6055 L229.378,163.6055 L256,163.6055 L256,154.7835 L233.7895,154.7835 Z" id="Shape" fill="#334F55"></path>
                    <path d="M30.878,154.7835 L30.878,82 C30.878,41.867 63.5395,9.2165 103.6875,9.2165 L152.158,9.2165 C192.306,9.2165 224.9675,41.867 224.9675,82 L224.9675,154.7835 L30.878,154.7835 Z" id="Shape" fill="#C5D35E"></path>
                    <g id="Group" transform="translate(52.500000, 93.000000)" fill="#334F55">
                        <path d="M48.5165,0.0495 L4.4055,4.4605 C1.9805,4.704 0.214,6.864 0.4555,9.2895 C0.684,11.564 2.6005,13.2615 4.8405,13.2615 C4.987,13.2615 5.1335,13.255 5.284,13.24 L49.395,8.829 C51.82,8.5855 53.5865,6.4255 53.345,4 C53.104,1.5765 50.9975,-0.179 48.5165,0.0495 Z" id="Shape"></path>
                        <path d="M146.44,4.4605 L102.329,0.0495 C99.878,-0.183 97.7455,1.5765 97.5,3.9995 C97.2585,6.4245 99.025,8.585 101.45,8.8285 L145.561,13.2395 C145.712,13.2545 145.8585,13.261 146.005,13.261 C148.245,13.261 150.162,11.5635 150.3905,9.289 C150.631,6.864 148.865,4.704 146.44,4.4605 Z" id="Shape"></path>
                        <path d="M77.585,13.261 L73.26,13.261 C64.722,13.261 57.778,20.188 57.778,28.7 L57.778,39.728 C57.778,42.164 59.751,44.139 62.189,44.139 L88.6555,44.139 C91.0935,44.139 93.0665,42.164 93.0665,39.728 L93.0665,28.7 C93.067,20.188 86.123,13.261 77.585,13.261 Z" id="Shape"></path>
                    </g>
                    <path d="M136.7445,128.317 L119.1,128.317 L119.1,121.7 C119.1,118.0515 122.0895,115.0835 125.76,115.0835 L130.085,115.0835 C133.755,115.0835 136.745,118.0515 136.745,121.7 L136.7445,128.317 L136.7445,128.317 Z" id="Shape" fill="#E4AD4B"></path>
                </g>
            </g>
        </g>
    </g>
</svg>