<?xml version="1.0" encoding="UTF-8"?>
<svg width="512px" height="358px" viewBox="0 0 512 358" version="1.1" xmlns="http://www.w3.org/2000/svg" xmlns:xlink="http://www.w3.org/1999/xlink">
    <!-- Generator: Sketch 41 (35326) - http://www.bohemiancoding.com/sketch -->
    <title>Group 2</title>
    <desc>Created with Sketch.</desc>
    <defs></defs>
    <g id="Page-1" stroke="none" stroke-width="1" fill="none" fill-rule="evenodd">
        <g id="Group-2">
            <g id="001-food">
                <rect id="Rectangle-path" fill="#5389A9" x="247.56" y="22.868" width="16.879" height="56.264"></rect>
                <path d="M256,67.879 L444.484,323.879 L478.242,323.879 L478.242,290.121 C478.242,167.38 378.74,67.879 256,67.879 Z" id="Shape" fill="#66C6FE"></path>
                <path d="M256,67.879 C133.26,67.879 33.758,167.38 33.758,290.121 L33.758,323.879 L444.483,323.879 L444.483,290.121 C444.484,167.38 360.097,67.879 256,67.879 Z" id="Shape" fill="#99D9FF"></path>
                <path d="M444.484,323.879 L410.726,357.637 L444.484,357.637 C463.129,357.637 478.242,342.523 478.242,323.879 L444.484,323.879 Z" id="Shape" fill="#5CA8D3"></path>
                <path d="M444.484,323.879 L33.758,323.879 C33.758,342.524 48.872,357.637 67.516,357.637 L410.725,357.637 C429.37,357.637 444.484,342.524 444.484,323.879 Z" id="Shape" fill="#66C6FE"></path>
                <path d="M503.56,332.319 L8.44,332.319 C3.778,332.319 0,328.541 0,323.879 C0,319.217 3.778,315.439 8.44,315.439 L503.56,315.439 C508.222,315.439 512,319.217 512,323.879 C512,328.541 508.222,332.319 503.56,332.319 Z" id="Shape" fill="#5CA8D3"></path>
                <g id="Group" transform="translate(111.000000, 146.000000)" fill="#66C6FE">
                    <circle id="Oval" cx="42.6" cy="9.088" r="8.44"></circle>
                    <circle id="Oval" cx="8.842" cy="42.846" r="8.44"></circle>
                </g>
                <path d="M256,0.363 L244.747,17.242 L256,34.121 L289.758,34.121 C289.758,15.477 274.645,0.363 256,0.363 Z" id="Shape" fill="#5CA8D3"></path>
                <path d="M222.242,34.121 L256,34.121 L256,0.363 C237.355,0.363 222.242,15.477 222.242,34.121 Z" id="Shape" fill="#66C6FE"></path>
            </g>
            <g id="people" transform="translate(128.000000, 153.000000)">
                <g id="Layer_1">
                    <path d="M233.7875,154.783 L233.7875,82 C233.7875,37.002 197.17,0.395 152.159,0.395 L103.6845,0.395 C58.6735,0.395 22.056,37.002 22.056,82 L22.056,154.783 L0,154.783 L0,163.605 L26.4665,163.605 L229.3765,163.605 L256,163.605 L256,154.783 L233.7875,154.783 L233.7875,154.783 Z" id="Shape" fill="#334F55"></path>
                    <path d="M30.8775,154.783 L30.8775,82 C30.8775,41.8675 63.5385,9.217 103.684,9.217 L152.1585,9.217 C192.304,9.217 224.965,41.867 224.965,82 L224.965,154.783 L30.8775,154.783 L30.8775,154.783 Z" id="Shape" fill="#77C9C9"></path>
                    <path d="M114.688,101.85 L101.455,101.85 L101.455,110.672 L110.277,110.672 L110.277,119.494 C110.277,129.223 118.1925,137.1385 127.9215,137.1385 C137.6505,137.1385 145.566,129.223 145.566,119.494 L145.566,110.672 L154.388,110.672 L154.388,101.85 L141.155,101.85 L114.688,101.85 Z" id="Shape" fill="#334F55"></path>
                    <path d="M136.7435,119.494 C136.7435,124.3595 132.787,128.316 127.9215,128.316 C123.056,128.316 119.0995,124.3595 119.0995,119.494 L119.0995,110.672 L136.744,110.672 L136.744,119.494 L136.7435,119.494 Z" id="Shape" fill="#E65F58"></path>
                    <g id="Group" transform="translate(61.500000, 53.000000)" fill="#334F55">
                        <path d="M44.366,26.7945 L44.366,22.3835 C44.366,10.223 34.471,0.328 22.3105,0.328 C10.15,0.328 0.255,10.223 0.255,22.3835 L0.255,26.7945 L9.077,26.7945 L9.077,22.3835 C9.077,15.0865 15.013,9.1505 22.31,9.1505 C29.607,9.1505 35.543,15.0865 35.543,22.3835 L35.543,26.7945 L44.366,26.7945 Z" id="Shape"></path>
                        <path d="M110.532,0.328 C98.3715,0.328 88.4765,10.223 88.4765,22.3835 L88.4765,26.7945 L97.2985,26.7945 L97.2985,22.3835 C97.2985,15.0865 103.2345,9.1505 110.5315,9.1505 C117.8285,9.1505 123.7645,15.0865 123.7645,22.3835 L123.7645,26.7945 L132.5865,26.7945 L132.5865,22.3835 C132.5875,10.223 122.693,0.328 110.532,0.328 Z" id="Shape"></path>
                    </g>
                </g>
            </g>
        </g>
    </g>
</svg>